<svg xmlns="http://www.w3.org/2000/svg" width="192" height="192" viewBox="0 0 192 192">
  <rect width="192" height="192" rx="24" fill="#2563eb"/>
  <g transform="translate(96, 96)">
    <!-- Conversion arrows -->
    <path d="M-40 -20 L-20 -20 L-20 -30 L0 -10 L-20 10 L-20 0 L-40 0 Z" fill="white"/>
    <path d="M40 20 L20 20 L20 30 L0 10 L20 -10 L20 0 L40 0 Z" fill="white"/>
    
    <!-- Ruler icon -->
    <rect x="-50" y="-40" width="20" height="80" fill="none" stroke="white" stroke-width="3" rx="2"/>
    <line x1="-45" y1="-30" x2="-35" y2="-30" stroke="white" stroke-width="2"/>
    <line x1="-45" y1="-20" x2="-35" y2="-20" stroke="white" stroke-width="2"/>
    <line x1="-45" y1="-10" x2="-35" y2="-10" stroke="white" stroke-width="2"/>
    <line x1="-45" y1="0" x2="-35" y2="0" stroke="white" stroke-width="2"/>
    <line x1="-45" y1="10" x2="-35" y2="10" stroke="white" stroke-width="2"/>
    <line x1="-45" y1="20" x2="-35" y2="20" stroke="white" stroke-width="2"/>
    <line x1="-45" y1="30" x2="-35" y2="30" stroke="white" stroke-width="2"/>
    
    <!-- Temperature icon -->
    <circle cx="30" cy="0" r="15" fill="none" stroke="white" stroke-width="3"/>
    <rect x="28" y="-20" width="4" height="10" fill="white" rx="2"/>
    <circle cx="30" cy="-25" r="3" fill="white"/>
    
    <!-- Degree symbol -->
    <text x="25" y="-30" font-family="Arial, sans-serif" font-size="12" fill="white">°</text>
  </g>
  
  <!-- App name abbreviation -->
  <text x="96" y="165" font-family="Arial, sans-serif" font-size="14" font-weight="bold" text-anchor="middle" fill="white">CONVERT</text>
</svg>